<svg width="133" height="24" viewBox="0 0 133 24" fill="none" xmlns="http://www.w3.org/2000/svg">
<g clip-path="url(#clip0_5_97)">
<path d="M62.7656 18.7537L62.7638 18.75C62.4954 18.1524 62.3667 17.4815 62.3667 16.7464V6.39259C62.3667 6.01095 62.4915 5.66562 62.7597 5.39566C63.0278 5.12569 63.371 5 63.7501 5C64.1292 5 64.4721 5.12569 64.7406 5.39566C65.0087 5.66562 65.1335 6.01095 65.1335 6.39259V16.7464C65.1335 17.1607 65.2115 17.4627 65.3372 17.6792C65.4579 17.8876 65.5571 17.9138 65.6339 17.9138H66.1048C66.4695 17.9138 66.7954 18.0477 67.037 18.3277C67.2834 18.5983 67.3941 18.9372 67.3941 19.3064C67.3941 19.7373 67.1986 20.0932 66.8566 20.3468C66.5237 20.5937 66.1169 20.699 65.6716 20.699H65.6339C64.9958 20.699 64.4159 20.522 63.91 20.1625C63.4146 19.8104 63.0337 19.3364 62.7656 18.7537Z" fill="#0866FF"/>
<path fill-rule="evenodd" clip-rule="evenodd" d="M77.8708 13.7799C77.7769 13.1672 77.6021 12.5984 77.3433 12.0764C76.9439 11.2321 76.3538 10.5665 75.5767 10.0911C74.792 9.59813 73.8672 9.36148 72.8211 9.36148C71.7603 9.36148 70.8028 9.60536 69.9619 10.1044C69.1254 10.5881 68.4666 11.2666 67.9895 12.1311L67.9883 12.1333C67.5203 12.9924 67.2934 13.9783 67.2934 15.0776C67.2934 16.1698 67.5353 17.1577 68.0298 18.0288L68.0319 18.0324L68.034 18.0361C68.5387 18.8876 69.2296 19.5616 70.0993 20.054L70.1029 20.0561L70.1064 20.058C70.9947 20.5395 71.9975 20.7748 73.1037 20.7748C73.7359 20.7748 74.3864 20.6572 75.0528 20.4293C75.7292 20.2023 76.3099 19.9031 76.7847 19.5242C77.0875 19.2898 77.2777 18.9631 77.2556 18.5611C77.2347 18.186 77.0457 17.8737 76.7676 17.6268L76.7644 17.6237L76.7608 17.6207C76.5092 17.4063 76.2063 17.3105 75.8793 17.326C75.5679 17.3287 75.2809 17.4336 75.0278 17.6206L75.0257 17.622L75.0239 17.6234C74.8191 17.7781 74.53 17.93 74.1433 18.0719C73.7848 18.1956 73.4386 18.2551 73.1037 18.2551C72.4543 18.2551 71.8972 18.1125 71.4192 17.8391C70.9332 17.5611 70.557 17.1871 70.283 16.7126C70.1868 16.5463 70.1073 16.3708 70.0443 16.1858H76.6452C76.9916 16.1858 77.3107 16.0779 77.5661 15.8404L77.5726 15.8343L77.5791 15.8281C77.8281 15.5773 77.9532 15.2606 77.9532 14.907C77.9532 14.5496 77.9302 14.2044 77.884 13.8719L77.8623 13.736L77.8708 13.7799ZM72.8211 11.8812C72.1721 11.8812 71.6402 12.0236 71.2069 12.289C70.7793 12.5586 70.4528 12.9289 70.2244 13.4107L70.2227 13.4143C70.1659 13.5314 70.1155 13.6532 70.0723 13.7799H75.2376C75.1864 13.5968 75.1211 13.4244 75.0425 13.2622L75.0416 13.2602L75.0407 13.2583C74.8347 12.8217 74.548 12.4878 74.1798 12.2443C73.8254 12.0098 73.3797 11.8812 72.8211 11.8812Z" fill="#0866FF"/>
<path fill-rule="evenodd" clip-rule="evenodd" d="M55.1451 9.36148C54.0929 9.36148 53.1298 9.61354 52.2665 10.1236C51.4211 10.6179 50.7453 11.299 50.2432 12.1598L50.242 12.1621L50.2405 12.1644C49.7469 13.0339 49.5044 14.0087 49.5044 15.0776C49.5044 16.1401 49.7251 17.1097 50.1764 17.9766L50.1781 17.9804L50.1802 17.9841C50.642 18.8315 51.2704 19.5134 52.0631 20.0224L52.0654 20.0239L52.0675 20.0253C52.8708 20.5272 53.775 20.7748 54.7684 20.7748C55.7612 20.7748 56.6657 20.5272 57.4689 20.0253L57.471 20.0239L57.4733 20.0224C57.657 19.9045 57.8313 19.7774 57.9967 19.641C58.0497 19.8902 58.1647 20.117 58.3449 20.3113L58.3552 20.3225L58.3664 20.3329C58.6428 20.5926 58.9854 20.7179 59.3648 20.7179C59.7439 20.7179 60.0868 20.5922 60.3549 20.3223C60.6295 20.0459 60.7667 19.6975 60.7667 19.3064V14.786L60.7605 14.7832C60.7184 13.8279 60.4703 12.9514 60.0106 12.1623C59.5208 11.3005 58.8511 10.619 58.0064 10.1246C57.1543 9.61333 56.1968 9.36148 55.1451 9.36148ZM57.6576 16.6866C57.4054 17.1497 57.0636 17.5151 56.6286 17.7895C56.2021 18.0463 55.7117 18.1793 55.1451 18.1793C54.5935 18.1793 54.1014 18.0476 53.6593 17.7883C53.2246 17.5136 52.8763 17.1474 52.6114 16.6831C52.3618 16.2108 52.2335 15.6788 52.2335 15.0776C52.2335 14.4607 52.363 13.9295 52.6114 13.4723C52.8772 12.9934 53.2257 12.6287 53.6578 12.3678L53.6605 12.3661C54.1034 12.0944 54.5947 11.957 55.1451 11.957C55.7097 11.957 56.1989 12.0953 56.6251 12.3636L56.6286 12.3657L56.6321 12.3678C57.0627 12.6279 57.4036 12.9907 57.6567 13.4668L57.6576 13.4687L57.6588 13.4707C57.9075 13.9282 58.0379 14.4599 58.0379 15.0776C58.0379 15.6802 57.9087 16.2134 57.6576 16.6866Z" fill="#0866FF"/>
<path d="M37.4015 9.75009C37.6584 9.95604 37.8227 10.2707 37.9333 10.6186L39.5275 15.6373L41.0451 10.477C41.1281 10.1926 41.2761 9.94487 41.4984 9.75554C41.7509 9.52689 42.0729 9.43735 42.4105 9.43735C42.7393 9.43735 43.0498 9.52873 43.2974 9.74973C43.537 9.94058 43.6912 10.1965 43.7621 10.4959L45.0808 15.6684L46.6787 10.6247L46.6796 10.6219C46.7826 10.2827 46.9425 9.98333 47.1853 9.76698C47.4373 9.54268 47.7454 9.43735 48.0807 9.43735C48.5478 9.43735 48.9684 9.61717 49.1895 10.0582C49.3937 10.453 49.3511 10.9094 49.1953 11.3536L46.4112 19.7612C46.3305 20.0364 46.1642 20.2616 45.9388 20.4362L45.9299 20.4429L45.9208 20.4493C45.678 20.6184 45.4004 20.699 45.1043 20.699C44.8153 20.699 44.5445 20.6156 44.3005 20.4577L44.2914 20.4518L44.2825 20.4455C44.0409 20.2717 43.8581 20.0413 43.7757 19.7509L43.7748 19.7478L42.3416 14.4118L40.8385 19.75L40.8382 19.7509C40.7557 20.0413 40.573 20.2717 40.3313 20.4455L40.3287 20.4474L40.326 20.4493C40.0832 20.6184 39.8056 20.699 39.5095 20.699C39.2205 20.699 38.9497 20.6156 38.7057 20.4577L38.6901 20.4476L38.6751 20.4362C38.452 20.2633 38.2836 20.0438 38.1894 19.7782L38.1879 19.7738L35.3938 11.3352L35.3899 11.3203C35.2778 10.8831 35.2569 10.456 35.4105 10.0886L35.4126 10.0836L35.4147 10.0787C35.6231 9.61281 36.0622 9.43735 36.5332 9.43735C36.8563 9.43735 37.1583 9.53249 37.4015 9.75009Z" fill="#0866FF"/>
<path fill-rule="evenodd" clip-rule="evenodd" d="M29.6662 9.36148C28.5824 9.36148 27.6069 9.60444 26.7531 10.1029C25.9048 10.5855 25.2333 11.2626 24.743 12.1265L24.7418 12.1285C24.2595 12.9885 24.0255 13.9762 24.0255 15.0776C24.0255 16.1676 24.26 17.1538 24.7404 18.0241L24.7424 18.0278L24.7445 18.0315C25.2352 18.8821 25.9057 19.5571 26.7507 20.051L26.753 20.0524L26.7554 20.0537C27.6089 20.5388 28.5835 20.7748 29.6662 20.7748C30.7488 20.7748 31.7236 20.5388 32.5769 20.0537L32.5793 20.0524L32.5816 20.051C33.4279 19.5565 34.0934 18.88 34.5717 18.0268L34.5731 18.0241C35.0535 17.1538 35.2881 16.1676 35.2881 15.0776C35.2881 13.9756 35.0473 12.9875 34.5522 12.1275C34.0742 11.2628 33.4087 10.5855 32.5607 10.1029C31.7077 9.60492 30.7385 9.36148 29.6662 9.36148ZM32.1799 16.7036L32.1781 16.7072L32.176 16.7108C31.9367 17.1707 31.6035 17.5268 31.172 17.7875C30.7461 18.0448 30.2487 18.1793 29.6662 18.1793C29.0838 18.1793 28.5864 18.0448 28.1603 17.7875C27.727 17.5258 27.3859 17.1673 27.1336 16.7036C26.8853 16.2472 26.7546 15.7095 26.7546 15.0776C26.7546 14.4457 26.8853 13.9081 27.1336 13.4517L27.1347 13.4498L27.1357 13.4479C27.3886 12.9718 27.7296 12.6089 28.1603 12.3488C28.5864 12.0915 29.0838 11.957 29.6662 11.957C30.2487 11.957 30.7461 12.0915 31.172 12.3488C31.6012 12.6079 31.9341 12.9683 32.1743 13.4407L32.1769 13.4462L32.1799 13.4517C32.4283 13.9081 32.559 14.4457 32.559 15.0776C32.559 15.7095 32.4283 16.2472 32.1799 16.7036Z" fill="#0866FF"/>
<path d="M22.2832 11.2205C22.5296 11.5041 22.6587 11.8548 22.5687 12.2402C22.4881 12.585 22.2711 12.8581 21.983 13.0676L21.9811 13.0689C21.7084 13.265 21.3936 13.3363 21.0638 13.2777L21.0515 13.2755L21.0394 13.2727C20.7357 13.2007 20.4703 13.0404 20.2443 12.8129L20.2397 12.8083L20.2352 12.8035C19.7053 12.2374 19.0564 11.957 18.2583 11.957C17.69 11.957 17.2068 12.0907 16.7943 12.3462L16.7908 12.3484L16.7872 12.3505C16.3717 12.5972 16.0449 12.9453 15.8049 13.4065C15.5678 13.8622 15.4409 14.4145 15.4409 15.0776C15.4409 15.6969 15.5654 16.2301 15.803 16.6882C16.0553 17.1505 16.3967 17.5154 16.8312 17.7895C17.2552 18.0448 17.7574 18.1793 18.3525 18.1793C18.7576 18.1793 19.0934 18.1328 19.3669 18.0487C19.6531 17.952 19.9118 17.8082 20.1451 17.616L20.1463 17.6151C20.4002 17.4074 20.6887 17.2736 21.0076 17.2517C21.3359 17.2161 21.6409 17.3091 21.8943 17.5239C22.1746 17.757 22.3673 18.0567 22.408 18.4215C22.451 18.7931 22.3097 19.1183 22.0555 19.3741L22.0499 19.3798L22.0441 19.3852C21.0498 20.3166 19.8085 20.7748 18.3525 20.7748C17.2791 20.7748 16.3042 20.5309 15.4397 20.0336L15.4361 20.0315L15.4325 20.0294C14.5899 19.5232 13.9209 18.8431 13.4308 17.9935L13.4287 17.9899L13.4267 17.9862C12.9473 17.1175 12.7118 16.1444 12.7118 15.0776C12.7118 13.9876 12.9464 13.0015 13.4267 12.1311C13.9038 11.2666 14.5625 10.5881 15.399 10.1044C16.2401 9.60536 17.1976 9.36148 18.2583 9.36148C19.0569 9.36148 19.7987 9.51831 20.477 9.83816C21.1553 10.1453 21.7571 10.6096 22.2832 11.2205Z" fill="#0866FF"/>
<path fill-rule="evenodd" clip-rule="evenodd" d="M5.64072 9.36148C4.58846 9.36148 3.62532 9.6136 2.762 10.1237C1.91676 10.618 1.24117 11.299 0.73896 12.1598L0.737633 12.1621L0.736332 12.1644C0.242767 13.0339 0 14.0087 0 15.0776C0 16.1401 0.220973 17.1097 0.672051 17.9766L0.674008 17.9804L0.676033 17.9841C1.13765 18.8315 1.76606 19.5134 2.55878 20.0224L2.56108 20.0239L2.56339 20.0253C3.36657 20.5272 4.27087 20.7748 5.26397 20.7748C6.25707 20.7748 7.16137 20.5272 7.96454 20.0253L7.96686 20.0239L7.96916 20.0224C8.15271 19.9045 8.32713 19.7774 8.4924 19.641C8.54542 19.8902 8.6605 20.117 8.84061 20.3113L8.851 20.3225L8.86212 20.3329C9.13851 20.5926 9.48109 20.7179 9.86038 20.7179C10.2395 20.7179 10.5825 20.5922 10.8507 20.3223C11.1253 20.0459 11.2626 19.6975 11.2626 19.3064V14.786L11.2562 14.7832C11.2143 13.8278 10.9661 12.9513 10.5061 12.1621C10.0165 11.3004 9.3469 10.6189 8.50197 10.1245C7.65003 9.61333 6.6924 9.36148 5.64072 9.36148ZM8.15347 16.6865C7.90113 17.1496 7.55935 17.5151 7.1244 17.7895C6.69779 18.0463 6.20739 18.1793 5.64072 18.1793C5.08922 18.1793 4.59726 18.0476 4.15505 17.7883C3.72039 17.5136 3.37198 17.1474 3.10728 16.683C2.85754 16.2107 2.72912 15.6787 2.72912 15.0776C2.72912 14.4606 2.85893 13.9294 3.10726 13.4722C3.37313 12.9933 3.72166 12.6287 4.15366 12.3678L4.15634 12.3661C4.59909 12.0944 5.0904 11.957 5.64072 11.957C6.20544 11.957 6.69449 12.0953 7.12096 12.3636L7.12437 12.3657L7.12782 12.3678C7.55849 12.6279 7.89946 12.9907 8.15241 13.4668L8.15344 13.4687L8.1545 13.4707C8.4034 13.9282 8.53349 14.4599 8.53349 15.0776C8.53349 15.6802 8.40443 16.2134 8.15347 16.6865Z" fill="#0866FF"/>
</g>
<path d="M82.9888 10.4229V10.7612C83.481 10.1118 84.0176 9.63672 84.5986 9.33594C85.1865 9.02832 85.8599 8.87451 86.6187 8.87451C87.3569 8.87451 88.0166 9.03516 88.5977 9.35645C89.1787 9.67773 89.6128 10.1323 89.8999 10.7202C90.0845 11.062 90.2041 11.4312 90.2588 11.8276C90.3135 12.2241 90.3408 12.73 90.3408 13.3452V18.5542C90.3408 19.1147 90.2109 19.5386 89.9512 19.8257C89.6982 20.1128 89.3667 20.2563 88.9565 20.2563C88.5396 20.2563 88.2012 20.1094 87.9414 19.8154C87.6816 19.5215 87.5518 19.1011 87.5518 18.5542V13.8887C87.5518 12.9658 87.4219 12.2617 87.1621 11.7764C86.9092 11.2842 86.3999 11.0381 85.6343 11.0381C85.1353 11.0381 84.6807 11.1885 84.2705 11.4893C83.8604 11.7832 83.5596 12.1899 83.3682 12.7095C83.2314 13.1265 83.1631 13.9058 83.1631 15.0474V18.5542C83.1631 19.1216 83.0298 19.5488 82.7632 19.8359C82.5034 20.1162 82.165 20.2563 81.748 20.2563C81.3447 20.2563 81.0132 20.1094 80.7534 19.8154C80.4937 19.5215 80.3638 19.1011 80.3638 18.5542V10.4639C80.3638 9.93066 80.48 9.53418 80.7124 9.27441C80.9448 9.00781 81.2627 8.87451 81.666 8.87451C81.9121 8.87451 82.1343 8.93262 82.3325 9.04883C82.5308 9.16504 82.688 9.33936 82.8042 9.57178C82.9272 9.8042 82.9888 10.0879 82.9888 10.4229ZM100.954 15.2524H95.478C95.4849 15.8882 95.6113 16.4487 95.8574 16.9341C96.1104 17.4194 96.4419 17.7852 96.8521 18.0312C97.269 18.2773 97.7271 18.4004 98.2261 18.4004C98.561 18.4004 98.8652 18.3628 99.1387 18.2876C99.4189 18.2056 99.689 18.0825 99.9487 17.9185C100.208 17.7476 100.448 17.5664 100.667 17.375C100.885 17.1836 101.169 16.9238 101.518 16.5957C101.661 16.4727 101.866 16.4111 102.133 16.4111C102.42 16.4111 102.652 16.4897 102.83 16.647C103.008 16.8042 103.097 17.0264 103.097 17.3135C103.097 17.5664 102.998 17.8638 102.799 18.2056C102.601 18.5405 102.3 18.8652 101.897 19.1797C101.5 19.4873 100.998 19.7437 100.39 19.9487C99.7881 20.1538 99.0942 20.2563 98.3081 20.2563C96.5103 20.2563 95.1123 19.7437 94.1143 18.7183C93.1162 17.6929 92.6172 16.3018 92.6172 14.5449C92.6172 13.7178 92.7402 12.9521 92.9863 12.248C93.2324 11.5371 93.5913 10.9287 94.063 10.4229C94.5347 9.91699 95.1157 9.53076 95.8062 9.26416C96.4966 8.99072 97.2622 8.854 98.103 8.854C99.1968 8.854 100.133 9.08643 100.913 9.55127C101.699 10.0093 102.287 10.604 102.676 11.3354C103.066 12.0669 103.261 12.812 103.261 13.5708C103.261 14.2749 103.059 14.7329 102.656 14.9448C102.252 15.1499 101.685 15.2524 100.954 15.2524ZM95.478 13.6631H100.554C100.485 12.7061 100.226 11.9917 99.7744 11.52C99.3301 11.0415 98.7422 10.8022 98.0107 10.8022C97.3135 10.8022 96.7393 11.0449 96.2881 11.5303C95.8438 12.0088 95.5737 12.7197 95.478 13.6631ZM107.085 10.6177L108.911 16.8726L110.572 11.0586C110.75 10.4502 110.879 10.0366 110.961 9.81787C111.05 9.59229 111.211 9.38037 111.443 9.18213C111.683 8.97705 112.007 8.87451 112.417 8.87451C112.834 8.87451 113.159 8.97705 113.392 9.18213C113.631 9.38037 113.798 9.59912 113.894 9.83838C113.99 10.0708 114.123 10.4775 114.294 11.0586L115.955 16.8726L117.801 10.6177C117.924 10.1665 118.023 9.8418 118.098 9.64355C118.173 9.43848 118.3 9.26074 118.478 9.11035C118.655 8.95312 118.912 8.87451 119.247 8.87451C119.582 8.87451 119.872 8.99072 120.118 9.22314C120.364 9.45557 120.487 9.729 120.487 10.0435C120.487 10.3306 120.381 10.7646 120.169 11.3457L117.883 18.0518C117.685 18.6191 117.531 19.0293 117.421 19.2822C117.312 19.5352 117.138 19.7607 116.898 19.959C116.666 20.1572 116.345 20.2563 115.935 20.2563C115.511 20.2563 115.176 20.1504 114.93 19.9385C114.69 19.7266 114.513 19.4668 114.396 19.1592C114.28 18.8516 114.154 18.4517 114.017 17.9595L112.417 12.5044L110.869 17.9595C110.664 18.7183 110.442 19.2925 110.203 19.6821C109.963 20.0649 109.543 20.2563 108.941 20.2563C108.634 20.2563 108.371 20.1948 108.152 20.0718C107.94 19.9556 107.762 19.7881 107.619 19.5693C107.475 19.3438 107.349 19.0806 107.239 18.7798C107.13 18.4722 107.044 18.2295 106.983 18.0518L104.717 11.3457C104.491 10.7168 104.378 10.2827 104.378 10.0435C104.378 9.74268 104.498 9.47266 104.737 9.2334C104.977 8.99414 105.271 8.87451 105.619 8.87451C106.084 8.87451 106.398 9.00781 106.562 9.27441C106.727 9.53418 106.901 9.98193 107.085 10.6177ZM131.438 16.5957C131.438 17.3682 131.25 18.0312 130.875 18.585C130.499 19.1318 129.941 19.5488 129.203 19.8359C128.472 20.1162 127.58 20.2563 126.527 20.2563C125.522 20.2563 124.661 20.1025 123.943 19.7949C123.225 19.4873 122.695 19.1045 122.354 18.6465C122.012 18.1816 121.841 17.7168 121.841 17.252C121.841 16.9443 121.95 16.6812 122.169 16.4624C122.388 16.2437 122.665 16.1343 123 16.1343C123.293 16.1343 123.519 16.2061 123.676 16.3496C123.833 16.4932 123.984 16.6948 124.127 16.9546C124.415 17.4536 124.756 17.8262 125.153 18.0723C125.556 18.3184 126.103 18.4414 126.793 18.4414C127.354 18.4414 127.812 18.3184 128.167 18.0723C128.53 17.8193 128.711 17.5322 128.711 17.2109C128.711 16.7188 128.523 16.3599 128.147 16.1343C127.778 15.9087 127.166 15.6934 126.312 15.4883C125.348 15.249 124.562 14.9995 123.953 14.7397C123.352 14.4731 122.87 14.1245 122.507 13.6938C122.145 13.2632 121.964 12.7334 121.964 12.1045C121.964 11.5439 122.131 11.0142 122.466 10.5151C122.801 10.0161 123.293 9.61963 123.943 9.32568C124.599 9.0249 125.389 8.87451 126.312 8.87451C127.036 8.87451 127.686 8.94971 128.26 9.1001C128.841 9.25049 129.323 9.45215 129.706 9.70508C130.095 9.95801 130.389 10.2383 130.587 10.5459C130.792 10.8535 130.895 11.1543 130.895 11.4482C130.895 11.7695 130.786 12.0327 130.567 12.2378C130.355 12.4429 130.051 12.5454 129.654 12.5454C129.367 12.5454 129.121 12.4634 128.916 12.2993C128.718 12.1353 128.489 11.8892 128.229 11.561C128.017 11.2876 127.768 11.0688 127.48 10.9048C127.193 10.7407 126.804 10.6587 126.312 10.6587C125.806 10.6587 125.385 10.7681 125.05 10.9868C124.715 11.1987 124.548 11.4653 124.548 11.7866C124.548 12.0806 124.671 12.3232 124.917 12.5146C125.163 12.6992 125.495 12.853 125.912 12.9761C126.329 13.0991 126.903 13.2495 127.634 13.4272C128.502 13.6392 129.21 13.8921 129.757 14.186C130.311 14.48 130.728 14.8286 131.008 15.2319C131.295 15.6284 131.438 16.083 131.438 16.5957Z" fill="black"/>
<defs>
<clipPath id="clip0_5_97">
<rect width="78" height="16" fill="white" transform="translate(0 5)"/>
</clipPath>
</defs>
</svg>
